<?xml version="1.0" encoding="UTF-8"?>
<svg width="628px" height="718px" viewBox="0 0 628 718" version="1.1" xmlns="http://www.w3.org/2000/svg" xmlns:xlink="http://www.w3.org/1999/xlink">
    <!-- Generator: Sketch 47.1 (45422) - http://www.bohemiancoding.com/sketch -->
    <title>icon</title>
    <desc>Created with Sketch.</desc>
    <defs></defs>
    <g id="logos" stroke="none" stroke-width="1" fill="none" fill-rule="evenodd">
        <g id="circle" transform="translate(-198.000000, -153.000000)" fill-rule="nonzero">
            <g id="icon" transform="translate(198.000000, 153.000000)">
                <path d="M599.03019,407.734977 L563.384992,413.805488 L563.384992,571.187363 C563.931655,584.253684 553.545067,595.06284 539.500047,595.06284 C537.243312,595.06284 420.090738,585.23506 419.67163,584.716333 L387.614781,703.882022 L167.777966,674.735154 L195.433481,544.593474 C88.7081435,506.516084 12.6127254,403.909012 14.1405769,283.733907 C15.4862077,177.928951 77.7216292,86.4254487 166.950964,42.2635266 C203.955809,23.9538535 245.612892,13.7896016 289.498676,14.1260733 C311.883804,14.2943092 333.624151,16.31314 354.409941,20.1264869 C460.138671,39.501654 541.225538,105.602939 557.329654,215.20582 L559.502287,234.651085 C560.006898,241.464639 560.273221,280.355169 560.273221,287.2949 C560.273221,287.463136 577.481409,318.885395 611.897784,381.561677 C617.883037,392.397471 611.253002,405.870362 599.03019,407.734977 Z" id="Shape" fill="#FFFFFF"></path>
                <path d="M361.016148,590.938202 C360.098434,590.938202 359.165189,590.839406 358.263005,590.655927 C357.359409,590.472449 356.469932,590.204288 355.622811,589.851444 C354.762983,589.4986 353.942688,589.061074 353.180279,588.55298 C352.403751,588.044885 351.682286,587.452108 351.034239,586.802875 C350.384779,586.153643 349.791795,585.419729 349.283522,584.657586 C348.776661,583.881331 348.33757,583.062733 347.984603,582.215909 C347.631636,581.369084 347.364793,580.479918 347.18125,579.576639 C346.997707,578.673359 346.898876,577.741852 346.898876,576.824459 C346.898876,575.892952 346.997707,574.975558 347.18125,574.056754 C347.364793,573.153474 347.631636,572.264308 347.984603,571.417484 C348.33757,570.570659 348.776661,569.752062 349.283522,568.975806 C349.791795,568.213664 350.384779,567.479749 351.034239,566.830517 C351.683698,566.181285 352.405163,565.588508 353.180279,565.080413 C353.942688,564.572318 354.761571,564.134792 355.622811,563.781949 C356.471344,563.429105 357.359409,563.160944 358.263005,562.977465 C360.084315,562.610508 361.9621,562.610508 363.78341,562.977465 C364.672887,563.160944 365.562364,563.429105 366.423604,563.781949 C367.270725,564.134792 368.089608,564.572318 368.852017,565.080413 C369.628545,565.588508 370.348598,566.181285 370.999469,566.830517 C371.648929,567.479749 372.241913,568.213664 372.764305,568.975806 C373.271165,569.752062 373.710256,570.570659 374.063223,571.417484 C374.41619,572.264308 374.683034,573.153474 374.866576,574.056754 C375.050119,574.974147 375.134831,575.89154 375.134831,576.824459 C375.134831,577.741852 375.048707,578.671948 374.866576,579.576639 C374.683034,580.479918 374.41619,581.369084 374.063223,582.215909 C373.710256,583.062733 373.271165,583.881331 372.764305,584.657586 C372.241913,585.419729 371.648929,586.153643 370.999469,586.802875 C370.35001,587.452108 369.628545,588.044885 368.852017,588.55298 C368.089608,589.061074 367.270725,589.4986 366.423604,589.851444 C365.562364,590.204288 364.672887,590.472449 363.78341,590.655927 C362.865696,590.837995 361.935274,590.938202 361.016148,590.938202 Z" id="Shape" fill="#000000"></path>
                <g id="Group" transform="translate(107.901685, 141.179775)" fill="#A4CDFF">
                    <path d="M329.050211,123.397846 C290.121433,162.302118 209.526794,144.833922 209.526794,144.833922 C209.526794,144.833922 192.047595,64.2900203 230.976373,25.3857483 C269.905152,-13.5185237 350.49979,3.94967228 350.49979,3.94967228 C350.49979,3.94967228 367.97899,84.4935744 329.050211,123.397846 Z" id="Shape"></path>
                    <path d="M21.0297717,195.609621 C52.9539769,227.513729 119.046149,213.188464 119.046149,213.188464 C119.046149,213.188464 133.380438,147.137898 101.456233,115.23379 C69.5320279,83.3296816 3.43985555,97.6549469 3.43985555,97.6549469 C3.43985555,97.6549469 -10.8944335,163.705513 21.0297717,195.609621 Z" id="Shape"></path>
                    <path d="M299.763583,304.617775 C267.839377,336.521883 201.745804,322.196618 201.745804,322.196618 C201.745804,322.196618 187.412916,256.144651 219.33572,224.240543 C251.259925,192.336435 317.352097,206.6617 317.352097,206.6617 C317.352097,206.6617 331.686386,272.713667 299.763583,304.617775 Z" id="Shape"></path>
                </g>
                <path d="M623.281943,374.78803 L573.460907,284.444955 C573.416109,273.481446 573.16832,240.44788 572.661542,233.584818 C572.648943,233.409525 572.632143,233.235635 572.613944,233.060342 L570.442638,213.60986 C570.424439,213.449993 570.40344,213.288723 570.379641,213.128856 C562.133999,156.928601 537.861854,109.929111 498.239375,73.4345643 C461.728962,39.807807 412.677893,16.5738058 356.390538,6.2427528 C334.831475,2.28113683 312.202858,0.184635634 289.14166,0.0107452339 C244.083218,-0.374898798 200.7635,9.62239686 160.432652,29.6099765 C113.690083,52.7780676 74.0018071,88.2587209 45.6558386,132.215129 C16.485306,177.451875 0.705191549,229.77746 0.0234211692,283.536238 C-1.48431332,402.247287 69.9251842,509.196895 178.90065,553.471635 L153.771741,671.905021 C152.961177,675.727805 153.778741,679.716065 156.029843,682.909198 C158.279545,686.100928 161.758394,688.208648 165.626426,688.721905 L385.188687,717.876594 C385.81026,717.959332 386.429033,718 387.039407,718 C393.287335,718 398.884292,713.806998 400.54602,707.618463 L429.463163,599.953661 C431.547673,600.145781 433.857573,600.356133 436.352264,600.580507 C449.284902,601.743049 465.599793,603.146793 477.009298,604.120018 C486.86207,604.960021 536.142729,609.150219 538.722816,609.150219 C549.444951,609.150219 559.293523,605.030138 566.455612,597.548644 C573.320913,590.37847 576.907557,580.956134 576.575772,570.985483 L576.575772,425.659386 L600.420936,421.592594 C610.619493,419.989718 619.418111,413.503886 623.980512,404.220382 C628.563913,394.893406 628.302125,383.890631 623.281943,374.78803 Z M598.860004,391.836301 C598.468021,392.637038 597.663056,393.64392 596.067125,393.886525 C595.987329,393.899146 595.907532,393.911767 595.827735,393.924388 L560.227282,399.996529 C553.499174,401.143644 548.578388,406.984398 548.578388,413.820815 L548.578388,571.244916 C548.578388,571.439842 548.582588,571.634767 548.590988,571.831095 C548.718382,574.886798 547.38844,576.946839 546.24889,578.136025 C544.475167,579.989921 541.911878,581.036068 539.007004,581.100576 C531.05115,580.602744 430.962498,572.174669 421.731299,571.014932 C419.911378,570.658737 418.008861,570.661542 416.127343,571.06121 C410.985366,572.157841 406.890544,576.047938 405.525603,581.134232 L376.699456,688.458265 L184.304415,662.911802 L205.916676,561.051293 L302.595075,579.960472 C303.500836,580.137167 304.403797,580.224112 305.292758,580.224112 C311.855673,580.224112 317.713019,575.579555 319.017762,568.886177 C320.500298,561.285484 315.547313,553.918982 307.961042,552.435304 L281.817178,547.322365 L281.817178,510.869889 L313.718992,478.913321 C320.309906,479.901972 330.540661,481.058904 342.382747,481.058904 C366.23631,481.058904 396.603791,476.363863 416.774115,456.160323 L416.774115,456.160323 C453.638713,419.231051 438.776959,348.201029 438.125987,345.194408 C436.964038,339.822036 432.77542,335.627631 427.412253,334.462285 C424.410783,333.810196 353.503864,318.922934 316.636465,355.852207 C286.450977,386.090906 290.944782,439.180767 293.921052,459.082804 L281.817178,471.207452 L281.817178,341.074327 L321.460656,301.362809 C329.290516,302.602479 342.347748,304.202551 357.604285,304.202551 C386.072049,304.202551 422.159681,298.625437 446.028644,274.715507 C489.811742,230.857263 472.017115,145.829064 471.237349,142.230655 C470.075399,136.858283 465.886781,132.663878 460.523614,131.498532 C456.93137,130.71883 372.048858,112.892259 328.26576,156.750503 C291.604153,193.475034 298.11807,259.051348 301.664116,281.530889 L281.818578,301.409086 L281.818578,206.613576 C281.818578,198.868441 275.55105,192.590156 267.819186,192.590156 C260.087322,192.590156 253.819795,198.868441 253.819795,206.613576 L253.819795,362.380108 L241.399534,349.938531 C244.377205,330.037896 248.87101,276.946633 218.684121,246.707934 C181.818123,209.778661 110.909804,224.665923 107.908334,225.318012 C102.545167,226.483359 98.3579489,230.679166 97.1945994,236.050135 C96.5436277,239.056756 81.6818734,310.086778 118.547872,347.01605 C138.720995,367.223798 169.082876,371.916034 192.93784,371.916034 C204.777125,371.916034 215.009281,370.760504 221.600194,369.77045 L253.818395,402.043948 L253.818395,541.84622 L198.876382,531.100074 C95.2388844,493.626693 26.6166658,394.415208 28.0194048,283.89103 C29.2597509,186.216512 84.7547399,98.4144812 172.847313,54.748358 C209.217732,36.7240571 248.280235,27.7630921 288.930269,28.0561816 C310.374537,28.2174509 331.373625,30.1596945 351.343757,33.8296234 C458.649095,53.5227112 528.361867,120.265773 542.644046,216.969871 L544.756554,235.884659 C545.035142,240.180032 545.252133,257.10069 545.371128,270.661337 L515.346632,270.661337 C507.616168,270.661337 501.34724,276.939621 501.34724,284.684756 C501.34724,292.42989 507.616168,298.708175 515.346632,298.708175 L549.342755,298.708175 L598.776007,388.348676 C599.561373,389.776261 599.254787,391.032759 598.860004,391.836301 Z M336.433005,375.682724 C354.824006,357.258756 391.685805,357.657021 412.315308,360.339701 C415.028391,380.980772 415.451172,417.81749 396.973375,436.327001 C383.300169,450.023675 359.418607,453.313569 339.587068,452.999444 L376.60146,415.921524 C382.068223,410.445378 382.068223,401.565749 376.60146,396.088202 C371.133298,390.612056 362.271683,390.612056 356.80212,396.088202 L319.787728,433.166122 C319.474142,413.296339 322.759799,389.377995 336.433005,375.682724 Z M348.0595,176.579618 C374.003173,150.590015 424.661372,154.467491 445.400071,157.371741 C448.299345,178.164265 452.165977,228.896789 426.226504,254.880783 L426.226504,254.882185 C406.151376,274.991768 371.288691,277.21448 346.928349,275.847197 L397.043372,225.64616 C402.510134,220.170015 402.510134,211.290386 397.043372,205.814241 C391.57521,200.338095 382.713595,200.338095 377.244032,205.815643 L327.077212,256.068566 C325.754269,230.098596 328.926531,195.744023 348.0595,176.579618 Z M181.216149,289.651851 C175.749386,284.175706 166.884972,284.175706 161.416809,289.651851 C155.950047,295.127996 155.950047,304.007625 161.416809,309.483771 L195.727918,343.853769 C175.89218,344.167894 152.014818,340.878 138.343012,327.182728 L138.343012,327.181326 C119.95761,308.765772 120.348193,271.863144 123.023477,251.192623 C143.67398,248.511346 180.50358,248.124299 198.883381,266.537049 C212.557987,280.235125 215.842245,304.157676 215.528658,324.023252 L181.216149,289.651851 Z" id="Shape" fill="#000000"></path>
            </g>
        </g>
    </g>
</svg>